<?xml version="1.0" encoding="UTF-8"?>
<svg width="64" height="64" viewBox="0 0 64 64" xmlns="http://www.w3.org/2000/svg">
  <!-- 背景 -->
  <rect width="64" height="64" rx="8" fill="#4CAF50"/>
  
  <!-- Excel图标风格 -->
  <rect x="12" y="12" width="40" height="40" rx="4" fill="white"/>
  
  <!-- 网格线 -->
  <g stroke="#4CAF50" stroke-width="1" opacity="0.3">
    <line x1="12" y1="24" x2="52" y2="24"/>
    <line x1="12" y1="32" x2="52" y2="32"/>
    <line x1="12" y1="40" x2="52" y2="40"/>
    <line x1="24" y1="12" x2="24" y2="52"/>
    <line x1="32" y1="12" x2="32" y2="52"/>
    <line x1="40" y1="12" x2="40" y2="52"/>
  </g>
  
  <!-- 工具图标 -->
  <g fill="#4CAF50">
    <circle cx="20" cy="20" r="2"/>
    <rect x="26" y="18" width="6" height="4" rx="1"/>
    <rect x="18" y="26" width="4" height="6" rx="1"/>
    <circle cx="36" cy="28" r="2"/>
    <rect x="30" y="34" width="8" height="2" rx="1"/>
    <circle cx="20" cy="40" r="2"/>
    <rect x="26" y="38" width="6" height="4" rx="1"/>
  </g>
  
  <!-- 标题 -->
  <text x="32" y="60" text-anchor="middle" fill="white" font-family="Arial" font-size="8" font-weight="bold">EXCEL</text>
</svg>
